<svg width="30" height="31" viewBox="0 0 30 31" fill="none" xmlns="http://www.w3.org/2000/svg">
<g clip-path="url(#clip0_2075_850)">
<path d="M14.9993 0.576324C6.7156 0.576324 0 7.29223 0 15.5763C0 23.0968 5.53884 29.3068 12.7576 30.3909V19.5513H9.04732V15.6091H12.759V12.9854C12.759 8.64087 14.8752 6.73451 18.486 6.73451C20.215 6.73451 21.1299 6.86269 21.5622 6.92132V10.3631H19.0996C17.5669 10.3631 17.031 11.8168 17.031 13.4545V15.6091H21.5227L20.9131 19.5527H17.031V30.4236C24.3521 29.4295 30 23.1704 30 15.5763C29.9986 7.29223 23.283 0.576324 14.9993 0.576324Z" fill="white"/>
</g>
<defs>
<clipPath id="clip0_2075_850">
<rect width="30" height="29.8473" fill="white" transform="translate(0 0.576324)"/>
</clipPath>
</defs>
</svg>
