<svg width="32" height="31" viewBox="0 0 32 31" fill="none" xmlns="http://www.w3.org/2000/svg">
<path fill-rule="evenodd" clip-rule="evenodd" d="M31.9985 13.2392C31.9985 6.0801 24.8214 0.255646 15.9992 0.255646C7.17709 0.255646 0 6.0801 0 13.2392C0 19.6575 5.69249 25.0321 13.3809 26.0488C13.9013 26.1613 14.6106 26.3922 14.7906 26.8376C14.9525 27.2425 14.8955 27.8753 14.8431 28.2847C14.8431 28.2847 14.6556 29.4139 14.6151 29.6538L14.6093 29.687C14.5329 30.1188 14.3387 31.2172 16.0007 30.5161C17.7088 29.7963 25.2143 25.0906 28.5704 21.2276C30.8888 18.6843 32 16.1049 32 13.2392H31.9985ZM26.6743 17.3736H22.18C22.0105 17.3736 21.8741 17.2371 21.8741 17.0677V17.0632V10.093V10.0855C21.8741 9.91608 22.0105 9.77962 22.18 9.77962H26.6743C26.8422 9.77962 26.9802 9.91758 26.9802 10.0855V11.2207C26.9802 11.3902 26.8437 11.5267 26.6743 11.5267H23.6196V12.7053H26.6743C26.8422 12.7053 26.9802 12.8433 26.9802 13.0113V14.1465C26.9802 14.3159 26.8437 14.4524 26.6743 14.4524H23.6196V15.6311H26.6743C26.8422 15.6311 26.9802 15.769 26.9802 15.937V17.0722C26.9802 17.2416 26.8437 17.3781 26.6743 17.3781V17.3736ZM10.3548 17.0677C10.3548 17.2372 10.2168 17.3736 10.0489 17.3736H10.0474H5.55308C5.38362 17.3736 5.24716 17.2372 5.24716 17.0677V17.0617V10.0841C5.24716 9.9146 5.38362 9.77814 5.55308 9.77814H6.68828C6.85623 9.77814 6.9942 9.9161 6.9942 10.0841V15.6266H10.0489C10.2168 15.6266 10.3548 15.7645 10.3548 15.9325V17.0677ZM12.7545 9.77962H11.6208C11.4518 9.77962 11.3149 9.91658 11.3149 10.0855V17.0677C11.3149 17.2366 11.4518 17.3736 11.6208 17.3736H12.7545C12.9234 17.3736 13.0604 17.2366 13.0604 17.0677V10.0855C13.0604 9.91658 12.9234 9.77962 12.7545 9.77962ZM19.3422 9.77962H20.4774L20.4789 9.78112C20.6483 9.78112 20.7848 9.91908 20.7848 10.087V17.0692C20.7848 17.2386 20.6468 17.3751 20.4789 17.3751H19.3512C19.3242 17.3751 19.2972 17.3706 19.2717 17.3646H19.2672C19.2597 17.3631 19.2537 17.3616 19.2462 17.3586C19.2447 17.3586 19.2432 17.3579 19.2417 17.3571C19.2402 17.3564 19.2387 17.3556 19.2372 17.3556C19.2363 17.3553 19.2354 17.355 19.2345 17.3547C19.2304 17.3535 19.2258 17.352 19.2222 17.3496C19.22 17.3481 19.2173 17.347 19.2147 17.3459C19.2121 17.3447 19.2095 17.3436 19.2072 17.3421L19.1982 17.3376C19.196 17.3363 19.1939 17.3351 19.1919 17.3339C19.1872 17.3312 19.1829 17.3288 19.1787 17.3256C19.1787 17.3241 19.1757 17.3226 19.1757 17.3226C19.1457 17.3031 19.1187 17.2776 19.0963 17.2461L15.8976 12.9258V17.0722C15.8976 17.2416 15.7611 17.3781 15.5917 17.3781H14.4565C14.287 17.3781 14.1506 17.2401 14.1506 17.0722V10.09C14.1506 9.92058 14.2885 9.78411 14.4565 9.78411H15.5842H15.5947H15.6112C15.6142 9.78411 15.6168 9.78449 15.6194 9.78486C15.6221 9.78524 15.6247 9.78561 15.6277 9.78561C15.6322 9.78711 15.6367 9.78711 15.6412 9.78711C15.6432 9.78761 15.6452 9.78828 15.6472 9.78895C15.6512 9.79028 15.6552 9.79161 15.6592 9.79161C15.6622 9.79311 15.6667 9.79461 15.6697 9.79461C15.6727 9.79536 15.6757 9.79648 15.6787 9.79761C15.6817 9.79873 15.6847 9.79986 15.6877 9.80061C15.6922 9.80061 15.6952 9.80361 15.6982 9.80361C15.7042 9.80511 15.7102 9.80811 15.7162 9.81111L15.7251 9.81561C15.7311 9.8186 15.7356 9.8216 15.7416 9.8246C15.7431 9.82535 15.7446 9.82648 15.7461 9.8276C15.7476 9.82873 15.7491 9.82985 15.7506 9.8306C15.7566 9.8336 15.7626 9.8366 15.7671 9.8411C15.7686 9.84185 15.7701 9.84297 15.7716 9.8441C15.7731 9.84522 15.7746 9.84635 15.7761 9.8471C15.7791 9.84935 15.7818 9.8516 15.7844 9.85385C15.787 9.8561 15.7896 9.85835 15.7926 9.86059C15.7934 9.86134 15.7945 9.86209 15.7956 9.86284C15.7968 9.86359 15.7979 9.86434 15.7986 9.86509C15.8016 9.86809 15.8046 9.87147 15.8076 9.87484C15.8106 9.87821 15.8136 9.88159 15.8166 9.88459L15.8181 9.88609C15.8219 9.89134 15.826 9.89658 15.8301 9.90183C15.8342 9.90708 15.8384 9.91233 15.8421 9.91758L19.0363 14.2319V10.0855C19.0363 9.91608 19.1727 9.77962 19.3422 9.77962Z" fill="white"/>
</svg>
