<svg width="110" height="81" viewBox="0 0 110 81" fill="none" xmlns="http://www.w3.org/2000/svg">
<path d="M0 74.2588H27.1378V71.2325C22.7359 71.0563 20.5307 69.4184 20.5307 66.3578L20.5823 21.866L47.402 66.822H58.6647L83.9583 21.8187V66.3621C83.9583 69.4228 81.1513 71.0606 75.5758 71.2368V74.2631H110V71.2368C104.394 71.0606 101.622 69.4228 101.622 66.3621V14.2486C101.622 11.2954 104.394 9.81667 110 9.81667V6.81616H82.8192L55.1053 53.6292L27.1808 6.82905L0 6.81186V9.81237C4.42768 9.81237 6.60714 11.2954 6.60714 14.2444V66.3578C6.60714 69.4184 4.42768 71.0563 0 71.2325V74.2588Z" fill="#1D2088"/>
<path d="M70.8945 19.88H66.2906C65.5856 16.686 64.7517 14.1498 63.7844 12.3228C62.8344 10.4959 61.7383 9.18477 60.526 8.44969C59.3138 7.7146 57.8221 7.33202 56.0682 7.33202C53.5105 7.33202 51.4643 8.31643 49.9426 10.3325C48.4208 12.3228 47.6642 15.0525 47.6642 18.5173C47.6642 20.9719 47.9737 22.9923 48.5799 24.6043C49.186 26.1862 50.136 27.6865 51.4127 29.0793C52.6894 30.472 54.9377 32.299 58.1789 34.5902C61.4373 36.9373 63.965 39.091 65.7318 41.0555C67.5157 43.02 68.8956 45.3112 69.9101 47.9335C70.9246 50.5514 71.419 53.6636 71.419 57.2918C71.419 61.4959 70.9934 65.0424 70.1251 67.9354C69.2567 70.7984 68.0445 73.1455 66.4883 74.9466C64.915 76.7736 63.0494 78.0847 60.8871 78.8757C58.7248 79.6666 56.3648 80.075 53.8071 80.075C51.1204 80.075 48.5154 79.7483 45.992 79.0648C43.4515 78.4114 40.9969 77.5387 38.5853 76.4727V59.7721H43.3053C44.1565 64.6555 45.4332 68.232 47.1398 70.4416C48.8292 72.6511 51.172 73.743 54.151 73.743C55.2988 73.743 56.4293 73.5495 57.5255 73.1412C58.6389 72.7586 59.6233 72.0751 60.4744 71.1509C61.3428 70.2223 62.0306 68.9671 62.5378 67.3594C63.0623 65.7474 63.3073 63.757 63.3073 61.3584C63.3073 58.6545 62.9978 56.4449 62.3573 54.7254C61.7168 53.0317 60.7194 51.4799 59.374 50.0613C58.0327 48.6427 55.6556 46.7341 52.2639 44.3311C49.3622 42.3107 47.0194 40.3462 45.2698 38.4118C43.4988 36.5031 42.1232 34.2377 41.1087 31.6155C40.1114 29.0234 39.5998 25.9111 39.5998 22.3647C39.5998 17.9714 40.3048 14.1799 41.7277 10.9601C43.1549 7.7404 45.2183 5.28583 47.905 3.56634C50.596 1.87264 53.7426 1 57.3622 1C59.4771 1 61.5061 1.18914 63.4749 1.52015C65.4566 1.87264 67.9155 2.55614 70.8988 3.56634V19.88H70.8945Z" fill="#009944" stroke="#E4007F" stroke-width="0.22" stroke-miterlimit="2.41"/>
</svg>
